<?xml version="1.0" encoding="UTF-8"?><svg id="creavaraText" xmlns="http://www.w3.org/2000/svg" viewBox="0 0 962.69 151.2"><defs><style>.cls-1{fill:#000;stroke-width:0px;}</style></defs><path class="cls-1" d="M109.05,106.2c-5.6,7.1-12.35,12.6-20.25,16.5-7.9,3.9-16.25,5.85-25.05,5.85-8,0-15.48-1.58-22.42-4.72-6.95-3.15-12.99-7.37-18.12-12.68-5.13-5.3-9.15-11.4-12.08-18.3-2.92-6.9-4.38-14.15-4.38-21.75s1.56-15.32,4.68-22.27c3.12-6.95,7.29-13.02,12.52-18.23,5.23-5.2,11.3-9.27,18.2-12.23,6.9-2.95,14.1-4.42,21.6-4.42,4.4,0,8.77.52,13.12,1.57,4.35,1.05,8.5,2.55,12.45,4.5,3.95,1.95,7.6,4.3,10.95,7.05,3.35,2.75,6.27,5.88,8.77,9.38l-12,9.15c-4.3-5.1-9.28-9.12-14.92-12.08-5.65-2.95-11.77-4.42-18.38-4.42-6,0-11.55,1.18-16.65,3.52-5.1,2.35-9.52,5.48-13.27,9.38s-6.68,8.38-8.78,13.42c-2.1,5.05-3.15,10.28-3.15,15.68,0,6,1.17,11.58,3.52,16.73,2.35,5.15,5.45,9.6,9.3,13.35,3.85,3.75,8.3,6.67,13.35,8.78,5.05,2.1,10.27,3.15,15.67,3.15,6.7,0,12.95-1.42,18.75-4.27,5.8-2.85,10.65-6.83,14.55-11.93l12,9.3ZM63.9,58.8c3.5,0,6.45,1.2,8.85,3.6s3.6,5.3,3.6,8.7-1.2,6.45-3.6,8.85c-2.4,2.4-5.35,3.6-8.85,3.6s-6.3-1.2-8.7-3.6c-2.4-2.4-3.6-5.35-3.6-8.85s1.2-6.3,3.6-8.7c2.4-2.4,5.3-3.6,8.7-3.6Z"/><path class="cls-1" d="M212.21,17.4c4.04,1.8,7.56,4.2,10.56,7.2,3,3,5.37,6.52,7.11,10.57,1.75,4.05,2.62,8.33,2.62,12.83s-.87,8.92-2.62,12.98c-1.75,4.05-4.12,7.57-7.11,10.57-3,3-6.52,5.38-10.56,7.13-4.05,1.75-8.36,2.62-12.96,2.62h-10.19l37.79,46.35h-19.67l-37.98-46.35h-4.8v46.35h-15.15v-46.35h-8.85v46.35h-15.15V14.7h15.15v51.45h58.92c2.4,0,4.71-.48,6.91-1.43,2.2-.95,4.13-2.26,5.79-3.92,1.65-1.66,2.96-3.59,3.91-5.8.95-2.21,1.43-4.52,1.43-6.93s-.48-4.72-1.43-6.93c-.95-2.21-2.25-4.12-3.9-5.72s-3.58-2.89-5.77-3.84c-2.2-.95-4.5-1.43-6.9-1.43h-50.1v-15.45h50.01c4.59,0,8.91.9,12.95,2.7Z"/><path class="cls-1" d="M334.65,127.65h-87.45V14.7h87.45v15.6h-47.85v33.45h32.55v15.15h-32.55v24.45h-15.15V30.3h-9v82.2h72v15.15Z"/><path class="cls-1" d="M349.05,127.65L413.55,14.55l64.5,113.1h-129ZM399.75,83.7h36.15l-22.35-38.7-38.55,67.8h77.25l-7.65-13.65h-44.85v-15.45Z"/><path class="cls-1" d="M480.6,14.7l43.35,112.95h-16.35l-43.5-112.95h16.5ZM507,14.7l29.1,73.5,29.1-73.5h16.35l-44.85,113.25-46.05-113.25h16.35Z"/><path class="cls-1" d="M563.85,127.65l64.5-113.1,64.5,113.1h-129ZM614.55,83.7h36.15l-22.35-38.7-38.55,67.8h77.25l-7.65-13.65h-44.85v-15.45Z"/><path class="cls-1" d="M793.91,17.4c4.04,1.8,7.56,4.2,10.56,7.2s5.37,6.52,7.11,10.57c1.75,4.05,2.62,8.33,2.62,12.83s-.87,8.92-2.62,12.98c-1.75,4.05-4.12,7.57-7.11,10.57s-6.52,5.38-10.56,7.13c-4.04,1.75-8.36,2.62-12.96,2.62h-10.19l37.79,46.35h-19.67l-37.98-46.35h-4.8v46.35h-15.15v-46.35h-8.85v46.35h-15.15V14.7h15.15v51.45h58.92c2.4,0,4.71-.48,6.91-1.43,2.2-.95,4.13-2.26,5.79-3.92,1.65-1.66,2.96-3.59,3.91-5.8.95-2.21,1.43-4.52,1.43-6.93s-.48-4.72-1.42-6.93c-.95-2.21-2.25-4.12-3.9-5.72s-3.58-2.89-5.78-3.84c-2.2-.95-4.5-1.43-6.9-1.43h-50.1v-15.45h50.01c4.59,0,8.91.9,12.95,2.7Z"/><path class="cls-1" d="M827.69,127.65l64.5-113.1,64.5,113.1h-129ZM878.39,83.7h36.15l-22.35-38.7-38.55,67.8h77.25l-7.65-13.65h-44.85v-15.45Z"/></svg>