<?xml version="1.0" encoding="UTF-8"?><svg id="Layer_2" xmlns="http://www.w3.org/2000/svg" viewBox="0 0 90.82 90.82"><defs><style>.cls-1{fill:#231f20;stroke-width:0px;}</style></defs><g id="Layer_1-2"><path class="cls-1" d="M45.41,0C20.33,0,0,20.33,0,45.41s20.33,45.41,45.41,45.41,45.41-20.33,45.41-45.41S70.49,0,45.41,0ZM45.5,15.65c7.63.03,13.83,8.12,13.34,17.39-.02.33-.09.66-.13.99-1.03,9.21-7.19,15.83-14.14,15.18-7.12-.66-12.88-8.6-12.6-17.35.29-9.29,6.1-16.25,13.53-16.21ZM67.01,68.69c-6.18,5.21-13.45,7.77-22.5,7.74-6.48-.08-13.13-2.42-19.04-6.79-4.15-3.07-4.29-4.72-.36-8.2,5.05-4.47,10.27-8.42,17.83-5.31,1.92.79,4.6.21,6.81-.27,6.72-1.45,15.43,1.97,18.62,8.03.58,1.1-.27,3.87-1.36,4.79Z"/></g></svg>