<?xml version="1.0" encoding="UTF-8"?><svg id="Layer_2" xmlns="http://www.w3.org/2000/svg" viewBox="0 0 90.82 90.82"><defs><style>.cls-1{fill:#231f20;stroke-width:0px;}</style></defs><g id="Layer_1-2"><path class="cls-1" d="M50.99,63.56c-.06-1.47-.54-2.02-1.95-2.05-2.16-.04-4.32-.03-6.48,0-2.26.03-2.52.3-2.57,2.47q-.07,3.02,2.98,3.03c.8,0,1.59,0,2.39,0,1.02,0,2.05,0,3.07,0q2.59,0,2.57-2.75c0-.23,0-.46,0-.68Z"/><path class="cls-1" d="M45.41,0C20.33,0,0,20.33,0,45.41s20.33,45.41,45.41,45.41,45.41-20.33,45.41-45.41S70.49,0,45.41,0ZM72.02,72.49c-7.33.02-14.66,0-21.99,0h-4.47c-8.82,0-17.64-.06-26.46.05-1.54.02-2.41-.73-3.06-1.72-.93-1.42.63-3.69,2.48-3.83.9-.07,2.29.22,2.58-.22.48-.74.3-1.93.3-2.94.01-15.92,0-31.84.01-47.76,0-1.9.69-2.6,2.69-2.72.46-.03.92,0,1.37,0h39.86c.57,0,1.15-.04,1.72,0,1.72.14,2.49.93,2.49,2.57,0,15.35,0,30.7,0,46.05,0,.69-.01,1.37,0,2.06.02.9-.27,2.1.2,2.62.43.48,1.67.27,2.55.32,1.53.1,2.74,1.28,2.75,2.73.01,1.59-1.22,2.77-3.04,2.77Z"/><path class="cls-1" d="M62.46,18.86c-11.22,0-22.45,0-33.67,0-1.84,0-1.86.02-1.86,1.77,0,7.44,0,14.89,0,22.33,0,5.96-.02,11.91.01,17.87.01,2.03.16,4.05.25,6.08,2.05.03,4.1.03,6.15.1.85.03,1.21-.18,1.18-1.12-.07-2.06-.05-4.12-.01-6.18.03-1.96,1.11-3,3.13-3.02,2.29-.02,4.58,0,6.87,0,3.09,0,6.19-.03,9.28.01,1.51.02,2.66,1.22,2.72,2.74.03.69-.02,1.38,0,2.06.07,1.8.16,3.6.24,5.4,1.82.03,3.64.09,5.46.1,1.84,0,1.86-.02,1.86-1.76,0-14.89,0-29.78,0-44.67,0-1.67-.02-1.69-1.59-1.69ZM35.26,52.6h-1.72c-2.13,0-3.86-1.73-3.86-3.86s1.73-3.86,3.86-3.86h1.72c2.13,0,3.86,1.73,3.86,3.86s-1.73,3.86-3.86,3.86ZM35.26,41.37h-1.72c-2.13,0-3.86-1.73-3.86-3.86s1.73-3.86,3.86-3.86h1.72c2.13,0,3.86,1.73,3.86,3.86s-1.73,3.86-3.86,3.86ZM35.26,30.14h-1.72c-2.13,0-3.86-1.73-3.86-3.86s1.73-3.86,3.86-3.86h1.72c2.13,0,3.86,1.73,3.86,3.86s-1.73,3.86-3.86,3.86ZM46.28,52.6h-1.72c-2.13,0-3.86-1.73-3.86-3.86s1.73-3.86,3.86-3.86h1.72c2.13,0,3.86,1.73,3.86,3.86s-1.73,3.86-3.86,3.86ZM46.28,41.37h-1.72c-2.13,0-3.86-1.73-3.86-3.86s1.73-3.86,3.86-3.86h1.72c2.13,0,3.86,1.73,3.86,3.86s-1.73,3.86-3.86,3.86ZM46.28,30.14h-1.72c-2.13,0-3.86-1.73-3.86-3.86s1.73-3.86,3.86-3.86h1.72c2.13,0,3.86,1.73,3.86,3.86s-1.73,3.86-3.86,3.86ZM57.42,52.6h-1.72c-2.13,0-3.86-1.73-3.86-3.86s1.73-3.86,3.86-3.86h1.72c2.13,0,3.86,1.73,3.86,3.86s-1.73,3.86-3.86,3.86ZM57.42,41.37h-1.72c-2.13,0-3.86-1.73-3.86-3.86s1.73-3.86,3.86-3.86h1.72c2.13,0,3.86,1.73,3.86,3.86s-1.73,3.86-3.86,3.86ZM57.42,30.14h-1.72c-2.13,0-3.86-1.73-3.86-3.86s1.73-3.86,3.86-3.86h1.72c2.13,0,3.86,1.73,3.86,3.86s-1.73,3.86-3.86,3.86Z"/></g></svg>