<?xml version="1.0" encoding="UTF-8"?><svg id="creavaraLogo" xmlns="http://www.w3.org/2000/svg" viewBox="0 0 483.99 587.21"><defs><style>.cls-1{fill:#000;stroke-width:0px;}</style></defs><path class="cls-1" d="M78.94,284.49c5.69-8.42,11.25-16.83,17.08-25.04.56-.78,2.82-.61,4.26-.47,5.18.5,10.41,2.05,15.48,1.59,12.82-1.15,22.03-11.21,22.85-24.81.67-11.26.41-22.57.66-33.85.68-29.95,11.47-55.78,33.64-75.87,24.09-21.83,52.95-29.65,85.09-24.79,58.38,8.83,85.28,56.37,87.54,100.81.51,9.95-.11,19.96.02,29.94.25,20.52,13.97,31.87,34.08,27.54,5.89-1.27,9.08-.4,12.08,4.91,3.91,6.92,8.78,13.29,13.79,20.71-6.64,1.39-12.42,3.04-18.32,3.76-15.4,1.87-30.93,2.48-45.28-4.52-16.36-7.98-25.82-21.17-26.65-39.82-.13-2.86,0-6.06-3.95-6.05-3.98.02-3.81,3.23-3.82,6.09-.07,24.22-.23,48.44-.2,72.65.02,14.77,9.41,23.77,24.17,23.61,4.9-.05,9.89-.55,14.67.22,20.76,3.35,35.37,20.79,35.84,42.36.16,7.52-.18,15.06.14,22.58.46,10.63,10.75,17.43,19.57,13.26,4.06-1.92,5.43-4.73,3.94-9.14-3.11-9.24-.95-15.72,6.12-19.24,7.03-3.49,16.09-.61,20.99,6.68,7.14,10.62,5.56,26.96-3.65,37.95-16.69,19.91-49.36,19.6-66.15-.67-7.46-9-11.79-19.14-11.22-31.09.23-4.9.23-9.82,0-14.72-.51-11.03-9.27-18.24-20.27-16.88-28.68,3.55-52.09-16.55-52.58-45.49-.42-24.54-.31-49.09-.78-73.62-.06-2.92-1.67-6.37-3.67-8.57-3.24-3.56-8.18-2.23-9.72,2.37-.91,2.72-1.14,5.78-1.15,8.69-.01,84.6.03,169.2.12,253.8,0,4.4.65,8.8.9,13.2.08,1.44.23,3.01-.24,4.32-6.83,19.09-13.75,38.15-20.68,57.21-.31.86-.89,1.63-1.72,3.11-3.29-8.7-6.38-16.75-9.39-24.82-4.17-11.19-8.3-22.38-12.39-33.6-.55-1.51-1.09-3.15-1.05-4.72.34-17.16,1.12-34.32,1.17-51.48.18-72.82.14-145.63.18-218.45,0-1.31.04-2.63-.1-3.92-.43-3.92-2.04-7.23-6.36-7.49-4.24-.25-6.53,2.81-7.45,6.54-.61,2.5-.56,5.19-.57,7.8-.13,22.25-.27,44.51-.27,66.76,0,11.52-3.06,21.92-10.27,31.04-10.52,13.32-24.4,18.73-41.04,17.4-13.41-1.07-21.62,5.72-22.36,19.2-.28,5.06-.03,10.14-.02,15.21.04,19.17-12.88,36.35-31.36,41.67-19.28,5.56-38.64-1.27-48.91-17.72-6.38-10.23-7.87-21.15-1.69-32.11,3.48-6.18,9.05-9.47,16.27-8.93,9.81.74,15.16,9.47,12.07,19.23-2.38,7.5,1.15,12.01,9.06,11.58,8.45-.47,14.46-7.13,14.8-16.56.33-9.14-.22-18.4.98-27.42,2.88-21.57,21.09-36.48,42.8-35.96,2.94.07,5.89.17,8.83.13,12.9-.16,21.89-8.51,22.02-21.4.27-25.36.12-50.73-.07-76.09-.01-1.53-1.85-4.19-3.08-4.34-3.35-.42-4.29,2.33-4.3,5.2-.05,13.45-5.77,24.3-15.34,33.31-7.81,7.36-17.36,10.8-27.9,11.95-16.24,1.77-35.44-.06-47.25-4.76ZM311.56,174.54c.09-14.72-11.82-26.85-26.63-27.11-14.81-.26-27.47,11.96-27.71,26.75-.25,15.16,11.9,27.11,27.57,27.13,14.87.01,26.68-11.78,26.77-26.76ZM199.8,201.42c14.94.07,26.79-11.91,27-27.26.19-14.57-11.89-26.42-27.05-26.53-15.11-.12-26.88,12.01-26.96,27.77-.07,14.29,12.05,25.96,27.02,26.03Z"/><path class="cls-1" d="M150.1,133.01c-23.79-20.98-47.22-41.89-70.93-62.47-10.6-9.21-21.75-17.78-32.63-26.67-.72-.59-1.44-1.35-1.81-2.19-6.01-13.43-11.98-26.88-17.93-40.34-.1-.23.09-.6.22-1.34,1.06.41,2.04.77,3.01,1.17,13.57,5.66,27.1,11.43,40.75,16.89,2.8,1.12,4.45,2.39,4.46,5.46.01,4.62,2.46,7.85,5.8,10.82,25.18,22.4,50.29,44.88,75.42,67.33.22.2.59.23.46.19,11.68-5.66,18.9-14.66,23.43-26.52,4.54-11.9,10.07-23.44,15.53-34.96,6.47-13.65,15.35-25.13,30.2-30.63,21.02-7.77,44.71.75,57.06,21.55,5.9,9.93,10.13,20.87,15.03,31.38,2.9,6.23,5.91,12.42,8.41,18.81,2.74,6.99,7.07,12.41,13.49,16.28,2.23,1.34,4.22,3.07,6.57,4.81,6.29-5.78,12.63-11.58,18.96-17.41,19.73-18.18,39.52-36.29,59.1-54.64,1.93-1.81,2.52-5.05,3.77-7.6.73-1.5,1.18-3.81,2.37-4.3,15.05-6.22,30.21-12.17,45.89-18.41-.64,1.6-1.1,2.89-1.66,4.14-5.33,11.95-10.65,23.9-16.04,35.82-.58,1.28-1.36,2.64-2.41,3.53-17.73,14.97-35.68,29.68-53.24,44.84-16.69,14.41-32.98,29.27-49.76,44.21-3.05-3.42-6.19-6.91-9.29-10.44-9.45-10.72-20.59-19.04-33.9-24.5-2.44-1-4.96-3.25-6.19-5.58-13.5-25.6-26.76-51.33-40.09-77.03-.44-.84-.93-1.66-1.8-3.22-1.99,3.62-3.73,6.65-5.33,9.76-12.14,23.54-24.21,47.13-36.46,70.62-1.04,1.99-2.9,4.14-4.9,4.97-17.99,7.44-32.87,18.77-44.33,34.54-.28.38-.7.66-1.22,1.15ZM423.89,41.8c4.93-.32,8.55-1.78,9.93-7,.79-2.96,2.06-5.95,3.77-8.48,2.32-3.43.46-5.78-1.73-7.57-1.14-.94-3.66-.8-5.35-.36-3.46.91-6.78,2.38-10.17,3.56-6.68,2.34-7.41,3.6-6.4,11.32,3.26-.36,6.53-.72,9.95-1.09v9.62ZM47.69,16.85c-3.62,3.22-4.23,6.54-1.83,10.58,1.32,2.22,2.43,4.7,2.98,7.21,1.22,5.52,4.97,7.05,10.02,7.3.32-3.23.62-6.27.98-9.83,3.51.26,6.65.49,11.57.84-2.12-3.69-3.02-7.56-5.33-8.79-5.7-3.05-12.05-4.89-18.38-7.31Z"/><path class="cls-1" d="M361.19,207.99h59.6c.13-1.85.32-3.28.33-4.72.07-13.74.2-27.48.15-41.23-.05-10.98-6.64-20.02-16.53-23.05-8.86-2.71-17.7.76-22.36,8.77-2.99,5.15-2.83,10.63.42,14.72,3.29,4.14,9.36,5.64,15.22,3.55,2.4-.86,4.66-2.12,7.86-3.61,0,7.11.85,13.68-.35,19.87-.61,3.14-4.43,6.47-7.62,8.16-13.84,7.29-30.69,1.47-40.17-13.32-16.24-25.35-1.44-59.67,28.94-67.1,31.03-7.6,61.11,15.53,61.55,47.47.21,15.05.02,30.1,0,45.15,0,1.6,0,3.2,0,5.36h32.41v24.15h-119.46v-24.16Z"/><path class="cls-1" d="M62.14,232.28H3.76v-23.92h31.9c0-2.33,0-4.22,0-6.11.02-15.05-.1-30.1.09-45.15.28-22.45,17.32-43.12,38.65-47.19,23.89-4.56,46.05,6.58,54.91,27.61,8.36,19.83,1.19,43.15-16.17,52.2-9.11,4.75-18.46,5.38-27.75.52-5.15-2.7-8.14-6.87-7.89-13.04.19-4.68.04-9.37.04-14.08,5.06,1.33,9.34,3.09,13.74,3.47,8.21.71,14.18-6.78,12.24-14.82-1.76-7.27-6.7-11.47-13.82-13.03-8.67-1.91-15.87,1.01-21.39,7.73-5.28,6.43-6.11,14.35-6.16,22.26-.13,19.3-.02,38.6-.01,57.91,0,1.76,0,3.52,0,5.65Z"/><path class="cls-1" d="M76.99,293.4c9.74,2.34,19.12,4.49,28.42,6.96.97.26,2,2.29,2.09,3.57,2.48,35.71-26.73,56.36-56.51,53.45-23.75-2.32-41.45-16.58-48.42-39.09-6.74-21.76,0-45.43,17.47-60,10.93-9.12,23.92-13,37.94-11.75,9.7.87,19.25,3.41,29.8,5.38-3.77,5.34-7.01,9.93-10.25,14.52-3.2,4.53-6.41,9.05-9.79,13.83-7.43-3.43-15.24-5.1-22.77-1.77-4.11,1.82-8.12,5.12-10.75,8.78-6.75,9.41-5.58,22.46,1.94,31.47,6.99,8.38,18.59,11.36,28.45,7.3,11.37-4.69,14.42-12.58,12.39-32.65Z"/><path class="cls-1" d="M407.19,293c-3.09,18.69,0,27.9,10.99,32.76,10.47,4.63,22.74,1.46,29.96-7.75,7.65-9.76,8.01-23.01.87-32.35-7.19-9.42-18.31-11.31-32.59-5.17-6.15-8.98-12.38-18.08-18.67-27.26,29.26-11.06,60.71-10.74,78.44,19.19,15.71,26.53,6.83,61.99-18.98,77.52-26.21,15.77-61.37,6.93-75.59-18.96-4.76-8.67-5.27-18.1-5.07-27.63.02-1.01,1.76-2.55,2.97-2.89,9.09-2.6,18.26-4.96,27.67-7.47Z"/><path class="cls-1" d="M205.21,362.2c0,17.15,0,34.95,0,52.76,0,20.43-.09,40.86.1,61.29.04,3.86-1.16,5.24-4.96,5.13-6.32-.18-12.65-.05-19.49-.05,0-2.02,0-3.62,0-5.21.04-30.56.13-61.12.06-91.69,0-3.34,1.18-4.82,4.04-6.71,7.08-4.68,13.55-10.3,20.25-15.52Z"/><path class="cls-1" d="M303.14,480.93h-23.4v-119.46c2.9,3.1,5.32,6.32,8.35,8.78,3.65,2.96,7.66,5.59,11.82,7.77,2.53,1.32,3.58,2.62,3.57,5.53-.09,31.25-.04,62.5-.05,93.75,0,1.11-.18,2.22-.29,3.63Z"/><path class="cls-1" d="M125.68,481.12v-24.83h16.81v-32.63h22.41v57.46h-39.22Z"/><path class="cls-1" d="M319.46,480.87v-57.33h21.55v32.15h16.87v25.18h-38.41Z"/><path class="cls-1" d="M70.72,208.4h51.81v23.77h-51.81v-23.77Z"/><path class="cls-1" d="M116.84,323.52v-20.03c16.86,1.34,31.85-2.64,44.79-14.96v34.99h-44.79Z"/><path class="cls-1" d="M217.73,88.1c7.89-15,15.68-29.82,24.05-45.74,8.49,16.13,16.4,31.17,24.07,45.74h-48.12Z"/><path class="cls-1" d="M367.43,303.67v19.82h-44.92v-35.53c12.36,13.27,27.85,16.68,44.92,15.71Z"/><path class="cls-1" d="M326.71,405.52c-4.72-.16-8.38-4.17-8.29-9.08.1-5.05,3.91-8.98,8.52-8.8,5.12.19,9.17,4.57,8.94,9.67-.21,4.67-4.35,8.38-9.17,8.22Z"/><path class="cls-1" d="M373.03,473.38c.03-5.6,3.47-9.26,8.58-9.13,4.97.13,8.51,3.84,8.48,8.87-.04,4.86-3.86,8.58-8.82,8.57-4.92,0-8.26-3.38-8.24-8.31Z"/><path class="cls-1" d="M165.72,396.19c.08,5.32-3.23,9.18-7.97,9.28-4.87.11-8.73-3.97-8.7-9.2.03-4.96,3.34-8.52,8.08-8.66,4.99-.15,8.52,3.37,8.6,8.58Z"/><path class="cls-1" d="M101.65,464.17c4.61-.12,8.55,3.53,8.77,8.12.24,5.04-3.75,9.51-8.52,9.53-4.38.02-8.24-3.87-8.46-8.54-.24-4.98,3.38-8.99,8.21-9.12Z"/><path class="cls-1" d="M287.18,513.55c-5.03,0-8.29-3.22-8.33-8.23-.04-4.83,3.92-8.94,8.53-8.84,4.78.1,8.72,4.04,8.76,8.74.04,4.71-3.87,8.34-8.97,8.33Z"/><path class="cls-1" d="M204.49,505.16c-.09,5.27-3.56,8.69-8.64,8.52-4.72-.16-8.28-3.9-8.18-8.6.1-4.96,3.96-8.75,8.77-8.6,4.73.15,8.13,3.82,8.05,8.68Z"/><path class="cls-1" d="M319.62,40.16c4.64.03,8.01,3.76,7.93,8.76-.08,5-3.55,8.45-8.35,8.29-4.99-.16-8.39-3.6-8.3-8.39.1-5.03,3.79-8.7,8.72-8.67Z"/><path class="cls-1" d="M163.86,57.45c-4.31-.11-7.77-4.19-7.68-9.05.1-4.83,3.82-8.5,8.37-8.26,4.45.24,7.94,3.95,7.85,8.35-.1,4.8-4.16,9.06-8.54,8.95Z"/><path class="cls-1" d="M297.83,173.96c.06,7.39-6.28,13.76-13.69,13.75-7.11,0-12.89-5.93-12.89-13.22,0-7.29,5.75-13.28,12.81-13.37,7.79-.1,13.7,5.41,13.76,12.83Z"/><path class="cls-1" d="M186.72,174.35c.09-7.42,5.8-13.28,12.88-13.23,7.58.05,13.63,5.99,13.46,13.21-.16,7.26-6.36,13.26-13.64,13.21-7.36-.05-12.8-5.69-12.71-13.19Z"/></svg>